<svg width="24" height="24" viewBox="0 0 24 24" fill="none" xmlns="http://www.w3.org/2000/svg">
<path fill-rule="evenodd" clip-rule="evenodd" d="M14 5C14 3.897 13.103 3 12 3C10.897 3 10 3.897 10 5V11C10 12.103 10.897 13 12 13C13.103 13 14 12.103 14 11V5ZM8 5C8 2.791 9.791 1 12 1C14.209 1 16 2.791 16 5V11C16 13.209 14.209 15 12 15C9.791 15 8 13.209 8 11V5ZM20 11V9H18V11C18 14.309 15.309 17 12 17C8.691 17 6 14.309 6 11V9H4V11C4 15.0793 7.0539 18.4459 11 18.9381V22H13V18.9381C16.9461 18.4459 20 15.0793 20 11Z" fill="white"/>
</svg>
