<svg width="24" height="24" viewBox="0 0 24 24" fill="none" xmlns="http://www.w3.org/2000/svg">
<path fill-rule="evenodd" clip-rule="evenodd" d="M3.71164 18.788L1 21.4996L2.3288 22.8284L6.15722 19L8.15722 17L16.8695 8.28776L18.3475 6.80967L23 2.15723L21.6712 0.82843L16.9774 5.52218L15.449 7.0506L5.49963 17L3.71164 18.788ZM5 5H14.6712L12.6712 7H5C3.89543 7 3 7.89543 3 9V15C3 15.4685 3.1611 15.8994 3.43092 16.2403L2.01193 17.6593C1.38246 16.9525 1 16.0209 1 15V9C1 6.79086 2.79086 5 5 5ZM15 17H10.9856L8.98565 19H15C17.1482 19 18.9009 17.3066 18.9959 15.1818L23 18V6L19.5751 8.41058L17 10.9856V13.777V15C17 16.1046 16.1046 17 15 17ZM19 12.739L21 14.147V9.854L19 11.261V12.739Z" fill="white"/>
</svg>
